# 3ds Max Wavefront OBJ Exporter v0.97b - (c)2007 guruware
# File Created: 13.03.2016 19:39:43

mtllib PEYEUM.mtl

#
# object Cylinder004
#

v  24.4345 3.0322 -0.1050
v  24.4345 2.5999 -1.7185
v  13.9596 3.2821 -2.1124
v  13.9596 3.8200 -0.1050
v  24.4345 1.4187 -2.8996
v  13.9596 1.8126 -3.5818
v  24.4345 -0.1947 -3.3319
v  13.9596 -0.1947 -4.1197
v  24.4345 -1.8082 -2.8996
v  13.9596 -2.2021 -3.5818
v  24.4345 -2.9894 -1.7185
v  13.9596 -3.6716 -2.1124
v  24.4345 -3.4217 -0.1050
v  13.9596 -4.2095 -0.1050
v  24.4345 -2.9894 1.5085
v  13.9596 -3.6716 1.9024
v  24.4345 -1.8082 2.6896
v  13.9596 -2.2021 3.3719
v  24.4345 -0.1947 3.1220
v  13.9596 -0.1947 3.9098
v  24.4345 1.4187 2.6896
v  13.9596 1.8126 3.3719
v  24.4345 2.5999 1.5085
v  13.9596 3.2821 1.9024
v  2.0275 3.6485 -1.5311
v  2.0275 4.2431 0.6878
v  2.0275 2.0242 -3.1555
v  2.0275 -0.1947 -3.7500
v  2.0275 -2.4137 -3.1555
v  2.0275 -4.0380 -1.5311
v  2.0275 -4.6326 0.6878
v  2.0275 -4.0380 2.9067
v  2.0275 -2.4137 4.5311
v  2.0275 -0.1947 5.1256
v  2.0275 2.0242 4.5311
v  2.0275 3.6485 2.9067
v  -11.9345 4.5249 -2.6256
v  -11.9345 5.1947 -0.1256
v  -11.9345 2.6947 -4.4558
v  -11.9345 0.1947 -5.1256
v  -11.9345 -2.3053 -4.4558
v  -11.9345 -4.1354 -2.6256
v  -11.9345 -4.8053 -0.1256
v  -11.9345 -4.1354 2.3744
v  -11.9345 -2.3053 4.2045
v  -11.9345 0.1947 4.8744
v  -11.9345 2.6947 4.2045
v  -11.9345 4.5249 2.3744
v  -24.4345 4.1354 -2.6256
v  -24.4345 4.8053 -0.1256
v  -24.4345 2.3053 -4.4558
v  -24.4345 -0.1947 -5.1256
v  -24.4345 -2.6947 -4.4558
v  -24.4345 -4.5249 -2.6256
v  -24.4345 -5.1947 -0.1256
v  -24.4345 -4.5249 2.3744
v  -24.4345 -2.6947 4.2045
v  -24.4345 -0.1947 4.8744
v  -24.4345 2.3053 4.2045
v  -24.4345 4.1354 2.3744
# 60 vertices

vn 0.0750 0.9972 0.0000
vn 0.0750 0.8636 -0.4986
vn 0.0381 0.8630 -0.5038
vn 0.0547 0.9985 -0.0056
vn 0.0750 0.4986 -0.8636
vn 0.0262 0.4975 -0.8671
vn 0.0750 -0.0000 -0.9972
vn 0.0219 -0.0000 -0.9998
vn 0.0750 -0.4986 -0.8636
vn 0.0262 -0.4975 -0.8671
vn 0.0750 -0.8636 -0.4986
vn 0.0381 -0.8630 -0.5038
vn 0.0750 -0.9972 -0.0000
vn 0.0547 -0.9985 -0.0056
vn 0.0750 -0.8636 0.4986
vn 0.0714 -0.8662 0.4945
vn 0.0750 -0.4986 0.8636
vn 0.0838 -0.5007 0.8616
vn 0.0750 -0.0000 0.9972
vn 0.0884 -0.0000 0.9961
vn 0.0750 0.4986 0.8636
vn 0.0838 0.5007 0.8616
vn 0.0750 0.8636 0.4986
vn 0.0714 0.8662 0.4945
vn 0.0483 0.8689 -0.4927
vn 0.0519 0.9986 0.0103
vn 0.0416 0.5023 -0.8637
vn 0.0339 -0.0023 -0.9994
vn 0.0273 -0.5060 -0.8621
vn 0.0237 -0.8708 -0.4911
vn 0.0239 -0.9997 0.0102
vn 0.0277 -0.8619 0.5064
vn 0.0341 -0.4971 0.8670
vn 0.0413 -0.0023 0.9991
vn 0.0477 0.4933 0.8685
vn 0.0517 0.8598 0.5080
vn 0.0329 0.8647 -0.5011
vn 0.0186 0.9998 -0.0047
vn 0.0439 0.5011 -0.8643
vn 0.0487 0.0048 -0.9988
vn 0.0460 -0.4938 -0.8683
vn 0.0363 -0.8622 -0.5053
vn 0.0221 -0.9997 -0.0048
vn 0.0071 -0.8669 0.4985
vn -0.0044 -0.4984 0.8669
vn -0.0090 0.0049 0.9999
vn -0.0057 0.5057 0.8627
vn 0.0044 0.8693 0.4943
vn -0.0269 0.8644 -0.5021
vn -0.0311 0.9995 0.0000
vn -0.0155 0.4961 -0.8681
vn 0.0002 -0.0051 -1.0000
vn 0.0157 -0.5038 -0.8637
vn 0.0270 -0.8670 -0.4976
vn 0.0311 -0.9995 -0.0000
vn 0.0270 -0.8670 0.4976
vn 0.0157 -0.5038 0.8637
vn 0.0002 -0.0051 1.0000
vn -0.0155 0.4961 0.8681
vn -0.0269 0.8644 0.5021
vn 1.0000 0.0000 -0.0000
vn -1.0000 -0.0000 -0.0000
# 62 vertex normals

vt 23.5619 0.0000 1.0000
vt 26.1799 0.0000 1.0000
vt 26.1799 12.5000 1.0000
vt 23.5619 12.5000 1.0000
vt 28.7979 0.0000 1.0000
vt 28.7979 12.5000 1.0000
vt 31.4159 0.0000 1.0000
vt 31.4159 12.5000 1.0000
vt 0.0000 0.0000 1.0000
vt 2.6180 0.0000 1.0000
vt 2.6180 12.5000 1.0000
vt 0.0000 12.5000 1.0000
vt 5.2360 0.0000 1.0000
vt 5.2360 12.5000 1.0000
vt 7.8540 0.0000 1.0000
vt 7.8540 12.5000 1.0000
vt 10.4720 0.0000 1.0000
vt 10.4720 12.5000 1.0000
vt 13.0900 0.0000 1.0000
vt 13.0900 12.5000 1.0000
vt 15.7080 0.0000 1.0000
vt 15.7080 12.5000 1.0000
vt 18.3260 0.0000 1.0000
vt 18.3260 12.5000 1.0000
vt 20.9439 0.0000 1.0000
vt 20.9439 12.5000 1.0000
vt 26.1799 25.0000 1.0000
vt 23.5619 25.0000 1.0000
vt 28.7979 25.0000 1.0000
vt 31.4159 25.0000 1.0000
vt 2.6180 25.0000 1.0000
vt 0.0000 25.0000 1.0000
vt 5.2360 25.0000 1.0000
vt 7.8540 25.0000 1.0000
vt 10.4720 25.0000 1.0000
vt 13.0900 25.0000 1.0000
vt 15.7080 25.0000 1.0000
vt 18.3260 25.0000 1.0000
vt 20.9439 25.0000 1.0000
vt 26.1799 37.5000 1.0000
vt 23.5619 37.5000 1.0000
vt 28.7979 37.5000 1.0000
vt 31.4159 37.5000 1.0000
vt 2.6180 37.5000 1.0000
vt 0.0000 37.5000 1.0000
vt 5.2360 37.5000 1.0000
vt 7.8540 37.5000 1.0000
vt 10.4720 37.5000 1.0000
vt 13.0900 37.5000 1.0000
vt 15.7080 37.5000 1.0000
vt 18.3260 37.5000 1.0000
vt 20.9439 37.5000 1.0000
vt 26.1799 50.0000 1.0000
vt 23.5619 50.0000 1.0000
vt 28.7979 50.0000 1.0000
vt 31.4159 50.0000 1.0000
vt 2.6180 50.0000 1.0000
vt 0.0000 50.0000 1.0000
vt 5.2360 50.0000 1.0000
vt 7.8540 50.0000 1.0000
vt 10.4720 50.0000 1.0000
vt 13.0900 50.0000 1.0000
vt 15.7080 50.0000 1.0000
vt 18.3260 50.0000 1.0000
vt 20.9439 50.0000 1.0000
vt -7.8540 0.0000 1.0000
vt -2.6180 0.0000 1.0000
vt -5.2360 0.0000 1.0000
vt -10.4720 0.0000 1.0000
vt 52.3599 50.0000 1.0000
vt 34.0339 50.0000 1.0000
vt 36.6519 50.0000 1.0000
vt 41.8879 50.0000 1.0000
vt 39.2699 50.0000 1.0000
vt 44.5059 50.0000 1.0000
vt 47.1239 50.0000 1.0000
vt 49.7419 50.0000 1.0000
vt 54.9779 50.0000 1.0000
# 78 texture coords

g Cylinder004
usemtl wire_087225087
s 8
f 1/1/1 2/2/2 3/3/3 4/4/4 
f 2/2/2 5/5/5 6/6/6 3/3/3 
f 5/5/5 7/7/7 8/8/8 6/6/6 
f 7/9/7 9/10/9 10/11/10 8/12/8 
f 9/10/9 11/13/11 12/14/12 10/11/10 
f 11/13/11 13/15/13 14/16/14 12/14/12 
f 13/15/13 15/17/15 16/18/16 14/16/14 
f 15/17/15 17/19/17 18/20/18 16/18/16 
f 17/19/17 19/21/19 20/22/20 18/20/18 
f 19/21/19 21/23/21 22/24/22 20/22/20 
f 21/23/21 23/25/23 24/26/24 22/24/22 
f 23/25/23 1/1/1 4/4/4 24/26/24 
f 4/4/4 3/3/3 25/27/25 26/28/26 
f 3/3/3 6/6/6 27/29/27 25/27/25 
f 6/6/6 8/8/8 28/30/28 27/29/27 
f 8/12/8 10/11/10 29/31/29 28/32/28 
f 10/11/10 12/14/12 30/33/30 29/31/29 
f 12/14/12 14/16/14 31/34/31 30/33/30 
f 14/16/14 16/18/16 32/35/32 31/34/31 
f 16/18/16 18/20/18 33/36/33 32/35/32 
f 18/20/18 20/22/20 34/37/34 33/36/33 
f 20/22/20 22/24/22 35/38/35 34/37/34 
f 22/24/22 24/26/24 36/39/36 35/38/35 
f 24/26/24 4/4/4 26/28/26 36/39/36 
f 26/28/26 25/27/25 37/40/37 38/41/38 
f 25/27/25 27/29/27 39/42/39 37/40/37 
f 27/29/27 28/30/28 40/43/40 39/42/39 
f 28/32/28 29/31/29 41/44/41 40/45/40 
f 29/31/29 30/33/30 42/46/42 41/44/41 
f 30/33/30 31/34/31 43/47/43 42/46/42 
f 31/34/31 32/35/32 44/48/44 43/47/43 
f 32/35/32 33/36/33 45/49/45 44/48/44 
f 33/36/33 34/37/34 46/50/46 45/49/45 
f 34/37/34 35/38/35 47/51/47 46/50/46 
f 35/38/35 36/39/36 48/52/48 47/51/47 
f 36/39/36 26/28/26 38/41/38 48/52/48 
f 38/41/38 37/40/37 49/53/49 50/54/50 
f 37/40/37 39/42/39 51/55/51 49/53/49 
f 39/42/39 40/43/40 52/56/52 51/55/51 
f 40/45/40 41/44/41 53/57/53 52/58/52 
f 41/44/41 42/46/42 54/59/54 53/57/53 
f 42/46/42 43/47/43 55/60/55 54/59/54 
f 43/47/43 44/48/44 56/61/56 55/60/55 
f 44/48/44 45/49/45 57/62/57 56/61/56 
f 45/49/45 46/50/46 58/63/58 57/62/57 
f 46/50/46 47/51/47 59/64/59 58/63/58 
f 47/51/47 48/52/48 60/65/60 59/64/59 
f 48/52/48 38/41/38 50/54/50 60/65/60 
s 1
f 21/23/61 19/21/61 17/19/61 1/66/61 
f 17/19/61 15/17/61 13/15/61 9/10/61 
f 13/15/61 11/13/61 9/10/61 
f 9/10/61 7/9/61 5/67/61 1/66/61 
f 5/67/61 2/68/61 1/66/61 
f 17/19/61 9/10/61 1/66/61 
f 23/69/61 21/23/61 1/66/61 
f 49/53/62 51/55/62 52/56/62 60/70/62 
f 52/56/62 53/71/62 54/72/62 56/73/62 
f 54/72/62 55/74/62 56/73/62 
f 56/73/62 57/75/62 58/76/62 60/70/62 
f 58/76/62 59/77/62 60/70/62 
f 52/56/62 56/73/62 60/70/62 
f 50/78/62 49/53/62 60/70/62 
# 54 polygons - 8 triangles

#
# object Cylinder006
#

v  -20.1439 0.9943 -15.3520
v  -20.4552 0.5017 -13.7865
v  -10.7053 3.0552 -12.1067
v  -10.3179 3.6681 -14.0544
v  -20.5222 -0.7084 -12.6371
v  -10.7886 1.5496 -10.6767
v  -20.3269 -2.3119 -12.2116
v  -10.5456 -0.4453 -10.1473
v  -19.9216 -3.8789 -12.6241
v  -10.0414 -2.3949 -10.6605
v  -19.4149 -4.9898 -13.7641
v  -9.4110 -3.7769 -12.0788
v  -18.9426 -5.3467 -15.3260
v  -8.8234 -4.2210 -14.0221
v  -18.6313 -4.8541 -16.8915
v  -8.4361 -3.6082 -15.9697
v  -18.5643 -3.6440 -18.0409
v  -8.3527 -2.1026 -17.3998
v  -18.7596 -2.0405 -18.4664
v  -8.5957 -0.1077 -17.9291
v  -19.1649 -0.4735 -18.0539
v  -9.1000 1.8420 -17.4159
v  -19.6716 0.6374 -16.9139
v  -9.7303 3.2240 -15.9976
v  0.9874 4.8409 -8.8930
v  1.3269 5.3780 -10.6000
v  0.9143 3.5213 -7.6396
v  1.1273 1.7729 -7.1757
v  1.5692 0.0642 -7.6255
v  2.1217 -1.1471 -8.8685
v  2.6367 -1.5363 -10.5717
v  2.9762 -0.9992 -12.2787
v  3.0492 0.3204 -13.5320
v  2.8362 2.0688 -13.9960
v  2.3943 3.7775 -13.5462
v  1.8418 4.9888 -12.3032
v  13.8752 8.7535 -3.7893
v  14.2606 9.3634 -5.7274
v  13.7922 7.2553 -2.3663
v  14.0340 5.2702 -1.8395
v  14.5358 3.3301 -2.3502
v  15.1631 1.9549 -3.7615
v  15.7478 1.5130 -5.6953
v  16.1332 2.1228 -7.6334
v  16.2162 3.6210 -9.0564
v  15.9743 5.6061 -9.5832
v  15.4726 7.5462 -9.0725
v  14.8453 8.9215 -7.6612
v  26.1538 9.1039 -3.9943
v  26.4349 9.5487 -5.4079
v  26.0933 8.0111 -2.9564
v  26.2696 6.5633 -2.5722
v  26.6356 5.1482 -2.9447
v  27.0931 4.1452 -3.9740
v  27.5196 3.8229 -5.3844
v  27.8007 4.2677 -6.7980
v  27.8612 5.3604 -7.8359
v  27.6848 6.8083 -8.2201
v  27.3189 8.2233 -7.8476
v  26.8614 9.2264 -6.8183
# 60 vertices

vn -0.2622 0.9650 -0.0029
vn -0.2989 0.8177 0.4920
vn -0.2794 0.8361 0.4721
vn -0.2014 0.9793 -0.0211
vn -0.2756 0.4511 0.8489
vn -0.2862 0.4639 0.8384
vn -0.2002 -0.0340 0.9792
vn -0.2196 -0.0375 0.9749
vn -0.0923 -0.5139 0.8529
vn -0.0980 -0.5296 0.8425
vn 0.0210 -0.8664 0.4990
vn 0.0451 -0.8766 0.4792
vn 0.1099 -0.9939 0.0053
vn 0.1708 -0.9852 -0.0131
vn 0.1494 -0.8559 -0.4950
vn 0.2459 -0.8306 -0.4996
vn 0.1280 -0.4889 -0.8629
vn 0.2515 -0.4585 -0.8524
vn 0.0517 0.0056 -0.9986
vn 0.1865 0.0314 -0.9820
vn -0.0589 0.4948 -0.8670
vn 0.0676 0.5121 -0.8563
vn -0.1741 0.8470 -0.5022
vn -0.0742 0.8591 -0.5064
vn -0.3402 0.8181 0.4637
vn -0.2145 0.9766 -0.0169
vn -0.3723 0.4381 0.8182
vn -0.3024 -0.0596 0.9513
vn -0.1500 -0.5405 0.8279
vn 0.0432 -0.8750 0.4822
vn 0.2248 -0.9744 0.0090
vn 0.3468 -0.8149 -0.4644
vn 0.3783 -0.4412 -0.8138
vn 0.3116 0.0493 -0.9489
vn 0.1628 0.5292 -0.8327
vn -0.0298 0.8699 -0.4923
vn -0.2229 0.8317 0.5085
vn -0.1557 0.9874 0.0297
vn -0.2260 0.4664 0.8552
vn -0.1628 -0.0148 0.9865
vn -0.0490 -0.4929 0.8687
vn 0.0853 -0.8469 0.5248
vn 0.2038 -0.9783 0.0360
vn 0.2738 -0.8400 -0.4684
vn 0.2753 -0.4620 -0.8431
vn 0.2076 0.0487 -0.9770
vn 0.0909 0.5442 -0.8340
vn -0.0417 0.8860 -0.4619
vn -0.0161 0.8611 0.5082
vn -0.0152 0.9999 0.0011
vn 0.0113 0.4943 0.8692
vn 0.0596 0.0013 0.9982
vn 0.1168 -0.4960 0.8605
vn 0.1666 -0.8607 0.4810
vn 0.1933 -0.9806 -0.0320
vn 0.1902 -0.8306 -0.5233
vn 0.1613 -0.4711 -0.8672
vn 0.1152 0.0041 -0.9933
vn 0.0620 0.4893 -0.8699
vn 0.0139 0.8606 -0.5091
vn -0.9520 -0.1814 -0.2464
vn 0.9520 0.1814 0.2464
# 62 vertex normals

vt 23.5619 0.0000 1.0000
vt 26.1799 0.0000 1.0000
vt 26.1799 12.5000 1.0000
vt 23.5619 12.5000 1.0000
vt 28.7979 0.0000 1.0000
vt 28.7979 12.5000 1.0000
vt 31.4159 0.0000 1.0000
vt 31.4159 12.5000 1.0000
vt 0.0000 0.0000 1.0000
vt 2.6180 0.0000 1.0000
vt 2.6180 12.5000 1.0000
vt 0.0000 12.5000 1.0000
vt 5.2360 0.0000 1.0000
vt 5.2360 12.5000 1.0000
vt 7.8540 0.0000 1.0000
vt 7.8540 12.5000 1.0000
vt 10.4720 0.0000 1.0000
vt 10.4720 12.5000 1.0000
vt 13.0900 0.0000 1.0000
vt 13.0900 12.5000 1.0000
vt 15.7080 0.0000 1.0000
vt 15.7080 12.5000 1.0000
vt 18.3260 0.0000 1.0000
vt 18.3260 12.5000 1.0000
vt 20.9439 0.0000 1.0000
vt 20.9439 12.5000 1.0000
vt 26.1799 25.0000 1.0000
vt 23.5619 25.0000 1.0000
vt 28.7979 25.0000 1.0000
vt 31.4159 25.0000 1.0000
vt 2.6180 25.0000 1.0000
vt 0.0000 25.0000 1.0000
vt 5.2360 25.0000 1.0000
vt 7.8540 25.0000 1.0000
vt 10.4720 25.0000 1.0000
vt 13.0900 25.0000 1.0000
vt 15.7080 25.0000 1.0000
vt 18.3260 25.0000 1.0000
vt 20.9439 25.0000 1.0000
vt 26.1799 37.5000 1.0000
vt 23.5619 37.5000 1.0000
vt 28.7979 37.5000 1.0000
vt 31.4159 37.5000 1.0000
vt 2.6180 37.5000 1.0000
vt 0.0000 37.5000 1.0000
vt 5.2360 37.5000 1.0000
vt 7.8540 37.5000 1.0000
vt 10.4720 37.5000 1.0000
vt 13.0900 37.5000 1.0000
vt 15.7080 37.5000 1.0000
vt 18.3260 37.5000 1.0000
vt 20.9439 37.5000 1.0000
vt 26.1799 50.0000 1.0000
vt 23.5619 50.0000 1.0000
vt 28.7979 50.0000 1.0000
vt 31.4159 50.0000 1.0000
vt 2.6180 50.0000 1.0000
vt 0.0000 50.0000 1.0000
vt 5.2360 50.0000 1.0000
vt 7.8540 50.0000 1.0000
vt 10.4720 50.0000 1.0000
vt 13.0900 50.0000 1.0000
vt 15.7080 50.0000 1.0000
vt 18.3260 50.0000 1.0000
vt 20.9439 50.0000 1.0000
vt -7.8540 0.0000 1.0000
vt -2.6180 0.0000 1.0000
vt -5.2360 0.0000 1.0000
vt -10.4720 0.0000 1.0000
vt 52.3599 50.0000 1.0000
vt 34.0339 50.0000 1.0000
vt 36.6519 50.0000 1.0000
vt 41.8879 50.0000 1.0000
vt 39.2699 50.0000 1.0000
vt 44.5059 50.0000 1.0000
vt 47.1239 50.0000 1.0000
vt 49.7419 50.0000 1.0000
vt 54.9779 50.0000 1.0000
# 78 texture coords

g Cylinder006
usemtl wire_087225087
s 8
f 61/79/63 62/80/64 63/81/65 64/82/66 
f 62/80/64 65/83/67 66/84/68 63/81/65 
f 65/83/67 67/85/69 68/86/70 66/84/68 
f 67/87/69 69/88/71 70/89/72 68/90/70 
f 69/88/71 71/91/73 72/92/74 70/89/72 
f 71/91/73 73/93/75 74/94/76 72/92/74 
f 73/93/75 75/95/77 76/96/78 74/94/76 
f 75/95/77 77/97/79 78/98/80 76/96/78 
f 77/97/79 79/99/81 80/100/82 78/98/80 
f 79/99/81 81/101/83 82/102/84 80/100/82 
f 81/101/83 83/103/85 84/104/86 82/102/84 
f 83/103/85 61/79/63 64/82/66 84/104/86 
f 64/82/66 63/81/65 85/105/87 86/106/88 
f 63/81/65 66/84/68 87/107/89 85/105/87 
f 66/84/68 68/86/70 88/108/90 87/107/89 
f 68/90/70 70/89/72 89/109/91 88/110/90 
f 70/89/72 72/92/74 90/111/92 89/109/91 
f 72/92/74 74/94/76 91/112/93 90/111/92 
f 74/94/76 76/96/78 92/113/94 91/112/93 
f 76/96/78 78/98/80 93/114/95 92/113/94 
f 78/98/80 80/100/82 94/115/96 93/114/95 
f 80/100/82 82/102/84 95/116/97 94/115/96 
f 82/102/84 84/104/86 96/117/98 95/116/97 
f 84/104/86 64/82/66 86/106/88 96/117/98 
f 86/106/88 85/105/87 97/118/99 98/119/100 
f 85/105/87 87/107/89 99/120/101 97/118/99 
f 87/107/89 88/108/90 100/121/102 99/120/101 
f 88/110/90 89/109/91 101/122/103 100/123/102 
f 89/109/91 90/111/92 102/124/104 101/122/103 
f 90/111/92 91/112/93 103/125/105 102/124/104 
f 91/112/93 92/113/94 104/126/106 103/125/105 
f 92/113/94 93/114/95 105/127/107 104/126/106 
f 93/114/95 94/115/96 106/128/108 105/127/107 
f 94/115/96 95/116/97 107/129/109 106/128/108 
f 95/116/97 96/117/98 108/130/110 107/129/109 
f 96/117/98 86/106/88 98/119/100 108/130/110 
f 98/119/100 97/118/99 109/131/111 110/132/112 
f 97/118/99 99/120/101 111/133/113 109/131/111 
f 99/120/101 100/121/102 112/134/114 111/133/113 
f 100/123/102 101/122/103 113/135/115 112/136/114 
f 101/122/103 102/124/104 114/137/116 113/135/115 
f 102/124/104 103/125/105 115/138/117 114/137/116 
f 103/125/105 104/126/106 116/139/118 115/138/117 
f 104/126/106 105/127/107 117/140/119 116/139/118 
f 105/127/107 106/128/108 118/141/120 117/140/119 
f 106/128/108 107/129/109 119/142/121 118/141/120 
f 107/129/109 108/130/110 120/143/122 119/142/121 
f 108/130/110 98/119/100 110/132/112 120/143/122 
s 1
f 81/101/123 79/99/123 77/97/123 61/144/123 
f 77/97/123 75/95/123 73/93/123 69/88/123 
f 73/93/123 71/91/123 69/88/123 
f 69/88/123 67/87/123 65/145/123 61/144/123 
f 65/145/123 62/146/123 61/144/123 
f 77/97/123 69/88/123 61/144/123 
f 83/147/123 81/101/123 61/144/123 
f 109/131/124 111/133/124 112/134/124 120/148/124 
f 112/134/124 113/149/124 114/150/124 116/151/124 
f 114/150/124 115/152/124 116/151/124 
f 116/151/124 117/153/124 118/154/124 120/148/124 
f 118/154/124 119/155/124 120/148/124 
f 112/134/124 116/151/124 120/148/124 
f 110/156/124 109/131/124 120/148/124 
# 54 polygons - 8 triangles

